<svg xmlns="http://www.w3.org/2000/svg" viewBox="0 0 32.78 22.46"><defs><style>.cls-1{fill:none;stroke:#000;stroke-miterlimit:10;stroke-width:0.49px;}</style></defs><title>link</title><g id="Layer_2" data-name="Layer 2"><g id="Layer_1-2" data-name="Layer 1"><ellipse class="cls-1" cx="16.39" cy="9.57" rx="16.14" ry="9.32"/><path class="cls-1" d="M.25,12.9c0,2.38,1.57,4.76,4.72,6.58,6.31,3.64,16.53,3.64,22.83,0,3.15-1.82,4.73-4.2,4.73-6.59"/><line class="cls-1" x1="32.53" y1="12.89" x2="32.53" y2="9.57"/><line class="cls-1" x1="0.25" y1="12.9" x2="0.25" y2="9.67"/><polygon points="15.75 11.93 11.68 9.58 9.91 10.61 13.98 12.96 15.75 11.93"/><polygon points="13.1 13.46 9.04 11.11 7.86 11.79 11.93 14.14 13.1 13.46"/><polygon points="16.43 11.54 22.57 7.99 25.05 9.42 25.74 3.81 16.03 4.21 18.5 5.64 12.36 9.19 16.43 11.54"/><polygon points="9.88 15.32 10.46 14.98 6.4 12.63 5.81 12.97 9.88 15.32"/></g></g></svg>